<svg aria-hidden="true" style="width:0;height:0;position:absolute;overflow:hidden" xmlns="http://www.w3.org/2000/svg"><defs><symbol id="icon-paper-clip" viewBox="0 0 40 32"><path d="M7.846 32c-1.605 0-3.03-.56-4.275-1.677-1.317-1.184-1.976-2.619-1.976-4.307s.659-3.123 1.976-4.306L24.227 2.032A7.483 7.483 0 0 1 27.823.168l.049-.008a8.424 8.424 0 0 1 4.245.243l-.06-.017c1.413.43 2.718 1.171 3.915 2.226a9 9 0 0 1 1.059 1.21c.325.442.587.904.79 1.387.398.929.629 2.01.629 3.146-.048 2.28-.91 4.182-2.586 5.709L20.237 28.968a1.132 1.132 0 0 1-.789.339h-.001l-.062.002c-.286 0-.547-.105-.747-.278l.001.001a.963.963 0 0 1-.358-.723v-.001l-.001-.049c0-.279.117-.531.305-.709l15.627-14.904c1.269-1.162 1.915-2.602 1.939-4.322.024-1.722-.586-3.13-1.832-4.227a8.044 8.044 0 0 0-2.496-1.594l-.054-.019a6.039 6.039 0 0 0-2.202-.408c-.288 0-.57.02-.847.058l.032-.004a5.128 5.128 0 0 0-2.877 1.325l.003-.003L5.222 23.13c-.885.795-1.328 1.752-1.328 2.87s.443 2.075 1.328 2.87c.408.366.851.64 1.33.822.48.184.982.253 1.509.21 1.054-.042 2.037-.483 2.946-1.322l16.416-15.677c.252-.227.477-.475.674-.745l.009-.014c.222-.298.375-.659.431-1.052l.001-.012a.961.961 0 0 0-.111-.57l.003.005a1.847 1.847 0 0 0-.43-.547l-.002-.002c-.454-.43-.896-.624-1.328-.581-.454.043-.97.312-1.544.806L12.768 21.997a1.242 1.242 0 0 1-1.102.288l.008.002a1.111 1.111 0 0 1-.523-.257l.001.001a.883.883 0 0 1-.358-.71v-.001c0-.28.107-.528.323-.742l12.357-11.84c.982-.859 1.976-1.333 2.982-1.418 1.149-.086 2.203.301 3.16 1.16.91.797 1.312 1.731 1.203 2.806-.107 1.077-.688 2.086-1.742 3.034L12.661 30.029c-1.341 1.205-2.838 1.85-4.49 1.936a.909.909 0 0 0-.167.017l.006-.001a.887.887 0 0 1-.161.016h-.001z"/></symbol></defs></svg>