<svg aria-hidden="true" style="width:0;height:0;position:absolute;overflow:hidden" xmlns="http://www.w3.org/2000/svg"><defs><symbol id="icon-polygon" viewBox="0 0 107 32"><path fill="#008cef" style="fill:var(--color1,#008cef)" d="M53.333 0 99.52 32H7.147L53.334 0z"/></symbol><symbol id="icon-call" viewBox="0 0 32 32"><path fill="#008cef" style="fill:var(--color1,#008cef)" d="m25.639 20.347-3.385-.389a2.647 2.647 0 0 0-2.188.761l-2.453 2.453c-3.802-1.962-6.824-4.984-8.734-8.674l-.053-.112 2.464-2.466a2.654 2.654 0 0 0 .759-2.187l-.386-3.36a2.671 2.671 0 0 0-2.65-2.359H6.703c-1.506 0-2.759 1.253-2.665 2.759.739 11.392 9.795 20.449 21.119 21.185l.067.003c1.506.091 2.759-1.161 2.759-2.667v-2.321a2.644 2.644 0 0 0-2.335-2.625l-.012-.001z"/></symbol></defs><symbol id="icon-burger" viewBox="0 0 57 32"><path fill="#487996" style="fill:var(--color1,#487996)" d="M56.889 1.778c0 .982-.796 1.778-1.778 1.778H1.778a1.778 1.778 0 1 1 0-3.556h53.333c.982 0 1.778.796 1.778 1.778zm0 28.444c0 .982-.796 1.778-1.778 1.778H1.778a1.778 1.778 0 1 1 0-3.556h53.333c.982 0 1.778.796 1.778 1.778zm0-14.236c0 .974-.79 1.764-1.764 1.764H1.763a1.764 1.764 0 0 1 0-3.528h53.362c.974 0 1.764.789 1.764 1.764z"/></symbol><symbol id="icon-x" viewBox="0 0 32 32"><path fill="#487996" style="fill:var(--color1,#487996)" d="m18.613 15.912 12.96-12.96A1.777 1.777 0 0 0 29.064.447l.002-.002-12.96 12.96L3.146.426A1.777 1.777 0 0 0 .641 2.935l-.002-.002 12.96 12.977L.62 28.87a1.78 1.78 0 1 0 2.505 2.51l.002-.003 12.977-12.96 12.96 12.96a1.777 1.777 0 0 0 2.505-2.509l.002.002-12.96-12.96z"/></symbol></svg>