<svg aria-hidden="true" style="width:0;height:0;position:absolute;overflow:hidden" xmlns="http://www.w3.org/2000/svg"><defs><symbol id="icon-polygon" viewBox="0 0 107 32"><path fill="#008cef" style="fill:var(--color1,#008cef)" d="M53.333 0 99.52 32H7.147L53.334 0z"/></symbol><symbol id="icon-call" viewBox="0 0 32 32"><path fill="#008cef" style="fill:var(--color1,#008cef)" d="m25.639 20.347-3.385-.389a2.647 2.647 0 0 0-2.188.761l-2.453 2.453c-3.802-1.962-6.824-4.984-8.734-8.674l-.053-.112 2.464-2.466a2.654 2.654 0 0 0 .759-2.187l-.386-3.36a2.671 2.671 0 0 0-2.65-2.359H6.703c-1.506 0-2.759 1.253-2.665 2.759.739 11.392 9.795 20.449 21.119 21.185l.067.003c1.506.091 2.759-1.161 2.759-2.667v-2.321a2.644 2.644 0 0 0-2.335-2.625l-.012-.001z"/></symbol></defs></svg>