<svgsymbol-defs.svg aria-hidden="true" style="position: absolute; width: 0; height: 0; overflow: hidden;" version="1.1" xmlns="http://www.w3.org/2000/svg" xmlns:xlink="http://www.w3.org/1999/xlink">
    <defs>
        <symbol id="icon-play" viewBox="0 0 26 32">
            <path d="M25.931 15.044c0.736 0.425 0.736 1.486 0 1.911l-24 13.856c-0.736 0.425-1.655-0.106-1.655-0.956v-27.713c0-0.849 0.92-1.38 1.655-0.956l24 13.856z"></path>
        </symbol>
        <symbol id="icon-attach" viewBox="0 0 35 32">
            <path d="M6.301 32c-1.49 0-2.811-0.56-3.968-1.678-1.222-1.184-1.832-2.618-1.832-4.306 0-1.69 0.61-3.125 1.832-4.307l19.168-19.677c0.897-0.911 2.047-1.57 3.337-1.863l0.046-0.009c0.461-0.104 0.991-0.164 1.535-0.164 0.841 0 1.648 0.143 2.399 0.405l-0.051-0.016c1.312 0.432 2.523 1.173 3.634 2.227 0.352 0.363 0.676 0.758 0.964 1.179l0.020 0.031c0.299 0.44 0.544 0.902 0.733 1.387 0.368 0.933 0.583 2.014 0.584 3.145v0.001c-0.045 2.278-0.845 4.182-2.4 5.709l-14.501 14.902c-0.181 0.202-0.441 0.332-0.731 0.339l-0.001 0c-0.017 0.001-0.038 0.002-0.058 0.002-0.269 0-0.513-0.105-0.695-0.276l0 0c-0.2-0.18-0.326-0.438-0.331-0.726v-0.001c-0.001-0.016-0.001-0.035-0.001-0.053 0-0.274 0.108-0.523 0.285-0.706l-0 0 14.499-14.902c1.178-1.162 1.778-2.603 1.8-4.323s-0.544-3.13-1.699-4.226c-0.661-0.67-1.447-1.213-2.32-1.594l-0.048-0.019c-0.605-0.259-1.308-0.409-2.046-0.409-0.266 0-0.527 0.019-0.783 0.057l0.029-0.003c-1 0.128-1.888 0.57-2.666 1.323l-19.168 19.677c-0.821 0.797-1.232 1.754-1.232 2.872 0 1.117 0.411 2.075 1.232 2.87 0.379 0.365 0.79 0.64 1.235 0.822 0.443 0.182 0.91 0.253 1.398 0.21 0.979-0.043 1.89-0.483 2.734-1.323l15.232-15.677c0.233-0.226 0.442-0.474 0.623-0.742l0.010-0.016c0.112-0.16 0.202-0.333 0.267-0.515 0.067-0.184 0.112-0.366 0.134-0.549 0.004-0.032 0.006-0.070 0.006-0.107 0-0.167-0.039-0.324-0.109-0.463l0.003 0.006c-0.103-0.214-0.237-0.395-0.399-0.548l-0.001-0.001c-0.422-0.429-0.832-0.624-1.232-0.581-0.424 0.043-0.901 0.312-1.435 0.806l-11.466 11.808c-0.128 0.123-0.284 0.217-0.459 0.27l-0.008 0.002c-0.093 0.029-0.199 0.046-0.309 0.046-0.28 0-0.535-0.109-0.725-0.287l0.001 0.001c-0.204-0.168-0.333-0.42-0.333-0.702 0-0.003 0-0.006 0-0.009v0c0-0.28 0.099-0.528 0.299-0.742l11.467-11.838c0.912-0.859 1.834-1.333 2.768-1.419 1.066-0.086 2.043 0.301 2.931 1.162 0.845 0.795 1.216 1.731 1.117 2.806s-0.638 2.086-1.616 3.032l-15.232 15.71c-1.246 1.203-2.635 1.85-4.168 1.936-0.054 0.001-0.105 0.006-0.156 0.017l0.005-0.001c-0.044 0.010-0.096 0.015-0.148 0.016h-0z"></path>
        </symbol>
    </defs>
</svg>
