<svg aria-hidden="true" style="position: absolute; width: 0; height: 0; overflow: hidden;" version="1.1" xmlns="http://www.w3.org/2000/svg" xmlns:xlink="http://www.w3.org/1999/xlink">
<defs>
<symbol id="icon-polygon" viewBox="0 0 107 32">
<path fill="#008cef" style="fill: var(--color1, #008cef)" d="M53.333 0l46.187 32h-92.373l46.187-32z"></path>
</symbol>
<symbol id="icon-call" viewBox="0 0 32 32">
<path fill="#008cef" style="fill: var(--color1, #008cef)" d="M25.639 20.347l-3.385-0.389c-0.093-0.012-0.201-0.018-0.31-0.018-0.734 0-1.397 0.298-1.878 0.779l-2.453 2.453c-3.802-1.962-6.824-4.984-8.734-8.674l-0.053-0.112 2.464-2.466c0.571-0.571 0.853-1.371 0.759-2.187l-0.386-3.36c-0.16-1.334-1.285-2.359-2.65-2.359-0.001 0-0.001 0-0.002 0h-2.308c-1.506 0-2.759 1.253-2.665 2.759 0.739 11.392 9.795 20.449 21.119 21.185l0.067 0.003c1.506 0.091 2.759-1.161 2.759-2.667v-2.309c0-0.004 0-0.008 0-0.012 0-1.355-1.021-2.472-2.335-2.625l-0.012-0.001z"></path>
</symbol>
</defs>
<symbol id="icon-burger" viewBox="0 0 57 32">
<path fill="#487996" style="fill: var(--color1, #487996)" d="M56.889 1.778c0 0.982-0.796 1.778-1.778 1.778v0h-53.333c-0.982 0-1.778-0.796-1.778-1.778s0.796-1.778 1.778-1.778v0h53.333c0.982 0 1.778 0.796 1.778 1.778v0zM56.889 30.222c0 0.982-0.796 1.778-1.778 1.778v0h-53.333c-0.982 0-1.778-0.796-1.778-1.778s0.796-1.778 1.778-1.778v0h53.333c0.982 0 1.778 0.796 1.778 1.778v0zM56.889 15.986c0 0.974-0.79 1.764-1.764 1.764v0h-53.362c-0.974 0-1.764-0.79-1.764-1.764s0.79-1.764 1.764-1.764v0h53.362c0.974 0 1.764 0.789 1.764 1.764z"></path>
</symbol>
<symbol id="icon-x" viewBox="0 0 32 32">
<path fill="#487996" style="fill: var(--color1, #487996)" d="M18.613 15.912l12.96-12.96c0.268-0.309 0.431-0.716 0.431-1.161 0-0.982-0.796-1.777-1.777-1.777-0.445 0-0.851 0.163-1.163 0.433l0.002-0.002-12.96 12.96-12.96-12.979c-0.309-0.268-0.716-0.431-1.161-0.431-0.982 0-1.777 0.796-1.777 1.777 0 0.445 0.163 0.851 0.433 1.163l-0.002-0.002 12.96 12.977-12.979 12.96c-0.394 0.329-0.642 0.82-0.642 1.369 0 0.983 0.797 1.78 1.78 1.78 0.549 0 1.040-0.249 1.367-0.639l0.002-0.003 12.977-12.96 12.96 12.96c0.309 0.268 0.716 0.431 1.161 0.431 0.982 0 1.777-0.796 1.777-1.777 0-0.445-0.163-0.851-0.433-1.163l0.002 0.002-12.96-12.96z"></path>
</symbol>
</svg>
