<svg aria-hidden="true" style="position: absolute; width: 0; height: 0; overflow: hidden;" version="1.1" xmlns="http://www.w3.org/2000/svg" xmlns:xlink="http://www.w3.org/1999/xlink">
<defs>
<symbol id="icon-polygon" viewBox="0 0 107 32">
<path fill="#008cef" style="fill: var(--color1, #008cef)" d="M53.333 0l46.187 32h-92.373l46.187-32z"></path>
</symbol>
<symbol id="icon-call" viewBox="0 0 32 32">
<path fill="#008cef" style="fill: var(--color1, #008cef)" d="M25.639 20.347l-3.385-0.389c-0.093-0.012-0.201-0.018-0.31-0.018-0.734 0-1.397 0.298-1.878 0.779l-2.453 2.453c-3.802-1.962-6.824-4.984-8.734-8.674l-0.053-0.112 2.464-2.466c0.571-0.571 0.853-1.371 0.759-2.187l-0.386-3.36c-0.16-1.334-1.285-2.359-2.65-2.359-0.001 0-0.001 0-0.002 0h-2.308c-1.506 0-2.759 1.253-2.665 2.759 0.739 11.392 9.795 20.449 21.119 21.185l0.067 0.003c1.506 0.091 2.759-1.161 2.759-2.667v-2.309c0-0.004 0-0.008 0-0.012 0-1.355-1.021-2.472-2.335-2.625l-0.012-0.001z"></path>
</symbol>
</defs>
</svg>
