<svg width="25" height="20" fill="none" xmlns="http://www.w3.org/2000/svg">
<path d="M4.904 20c-1.003 0-1.894-.35-2.672-1.048-.823-.74-1.235-1.637-1.235-2.692 0-1.055.412-1.952 1.235-2.691L15.142 1.27A4.694 4.694 0 0 1 17.42.1a5.26 5.26 0 0 1 2.616.142c.883.269 1.699.732 2.447 1.391.24.229.46.48.662.756.203.276.367.565.494.867a5.114 5.114 0 0 1 .393 1.966c-.03 1.425-.569 2.614-1.616 3.568l-9.767 9.315a.71.71 0 0 1-.494.212.714.714 0 0 1-.505-.172.606.606 0 0 1-.224-.453.61.61 0 0 1 .19-.474l9.767-9.315c.793-.726 1.197-1.626 1.212-2.701.015-1.076-.366-1.956-1.145-2.642a5.03 5.03 0 0 0-1.594-1.008 3.843 3.843 0 0 0-1.886-.221 3.205 3.205 0 0 0-1.796.826L3.264 14.456c-.553.497-.83 1.095-.83 1.794 0 .699.277 1.297.83 1.794.255.229.532.4.831.514.3.115.614.158.943.131.659-.026 1.273-.302 1.841-.826l10.26-9.798a3.018 3.018 0 0 0 .427-.474 1.452 1.452 0 0 0 .27-.665.608.608 0 0 0-.068-.353 1.153 1.153 0 0 0-.27-.343c-.284-.269-.56-.39-.83-.363-.284.027-.606.195-.965.504L7.979 13.75a.779.779 0 0 1-.684.181.692.692 0 0 1-.326-.16.551.551 0 0 1-.224-.444c0-.175.067-.33.202-.464l7.723-7.4c.614-.537 1.235-.833 1.864-.886.718-.054 1.377.188 1.975.725.569.498.82 1.082.752 1.754-.067.673-.43 1.304-1.089 1.896L7.912 18.77c-.838.753-1.774 1.156-2.806 1.21a.58.58 0 0 0-.101.01.58.58 0 0 1-.101.01Z" fill="#CDCDCD"/>
</svg>