<svg width="438" height="294" viewBox="0 0 438 294" fill="none" xmlns="http://www.w3.org/2000/svg">
<path d="M151.059 11.4937H289.481V149.916H223.059C183.294 149.916 151.059 117.681 151.059 77.9165V11.4937Z" fill="white"/>
<path d="M289.483 149.916H427.906V216.339C427.906 256.103 395.67 288.339 355.906 288.339H289.483V149.916Z" fill="white"/>
<path d="M0 138.423L-6.05065e-06 6.10352e-05L66.4228 5.81317e-05C106.187 5.63936e-05 138.423 32.2355 138.423 72L138.423 138.423L0 138.423Z" fill="white"/>
<rect x="144.976" y="155.257" width="138.423" height="138.423" rx="69.2114" fill="white"/>
<path d="M299.205 72.0005C299.205 32.236 331.44 0.000488281 371.205 0.000488281H437.627V66.4233C437.627 106.188 405.392 138.423 365.627 138.423H299.205V72.0005Z" fill="white"/>
<path d="M74.0561 287.127C34.2916 287.127 2.05615 254.892 2.05615 215.127L2.05615 148.705L68.479 148.705C108.243 148.705 140.479 180.94 140.479 220.705L140.479 287.127L74.0561 287.127Z" fill="white"/>
</svg>
