<!-- ! СПИСОК ИКОНОК -->
<!--? Иконка стрелки ↓ = #icon-arrow-to-down -->
<!--? Иконка закрытия меню = #icon-cross -->
<!--? Иконка  мобильного меню "Бургер" = #icon-mobile-menu -->
<!--? Иконка скрепка = #icon-input-file -->
<!--? Иконка стрилки влево < галереи = #icon-gallery-arrow-right -->
<!--? Иконка стрилки вправо > галереи = #icon-gallery-arrow-left -->
<!--? Иконка стрелки селекта в форме заказа = #icon-form-arrow -->
<!--? Иконка стрелки навигации "Послуги" = #icon-services-arrow -->
<!--? Иконка телефона = #icon-phone -->

<!--                                       * Спрайт                                   -->

<svg aria-hidden="true" style="position: absolute; width: 0; height: 0; overflow: hidden;" version="1.1" xmlns="http://www.w3.org/2000/svg" xmlns:xlink="http://www.w3.org/1999/xlink">
<defs>

<!--? Иконка загрузки изображений = #icon-loading -->
<symbol id="icon-loader" viewBox="0 0 32 32">
<path d="M16 5.333v3.048"></path>
<path d="M23.619 8.381l-2.286 2.286"></path>
<path d="M8.381 8.381l2.286 2.286"></path>
<path d="M16 26.667v-3.048"></path>
<path d="M23.619 23.619l-2.286-2.286"></path>
<path d="M8.381 23.619l2.286-2.286"></path>
<path d="M5.333 16h3.048"></path>
<path d="M23.619 16h3.048"></path>
</symbol>


<!--* Иконка стрелки ↓ -->
<symbol id="icon-arrow-to-down" viewBox="0 0 19 29">
<path fill-rule="evenodd" clip-rule="evenodd" d="M9.398.298A1 1 0 0 0 8.397 1.3v23.634l-6.3-6.307a1.002 1.002 0 1 0-1.418 1.42l8.01 8.015a1 1 0 0 0 1.418 0l8.01-8.016a1.004 1.004 0 0 0-1.418-1.419l-6.3 6.307V1.3A1.003 1.003 0 0 0 9.398.298Z"/>
</symbol>

<!--* Иконка закрытия меню -->
<symbol id="icon-cross" viewBox="0 0 24 24">
<path d="m13.96 11.934 9.72-9.72A1.333 1.333 0 0 0 21.8.334l-9.72 9.72L2.36.32A1.333 1.333 0 0 0 .48 2.2l9.72 9.733-9.734 9.72a1.335 1.335 0 1 0 1.88 1.88l9.733-9.72 9.72 9.72a1.333 1.333 0 0 0 1.88-1.88l-9.72-9.72Z"/></g><defs>
<clipPath id="a"><path fill="#fff" d="M0 0h24v24H0z"/></clipPath>
</symbol>

<!--* Иконка  мобильного меню "Бургер"-->
<symbol id="icon-mobile-menu" viewBox="0 0 32 18">
<path d="M32 1a1 1 0 0 1-1 1H1a1 1 0 0 1 0-2h30a1 1 0 0 1 1 1Zm0 16a1 1 0 0 1-1 1H1a1 1 0 1 1 0-2h30a1 1 0 0 1 1 1Zm0-8.008a.992.992 0 0 1-.992.992H.992A.992.992 0 1 1 .992 8h30.016c.548 0 .992.444.992.992Z" />
</symbol>

<!--* Иконка загрузки изображений для задания цвета использовать свойствр stroke -->
<symbol id="icon-loading" viewBox="0 0 44 44">
<path d="M22 7.333v4.19M32.476 11.524l-3.143 3.143M11.524 11.524l3.143 3.143M22 36.667v-4.19M32.476 32.476l-3.143-3.143M11.524 32.476l3.143-3.143M7.333 22h4.19M32.476 22h4.19" stroke="#487996" stroke-linecap="round" stroke-linejoin="round"/>
</symbol>

<!--* Иконка скрепка -->
<symbol id="icon-input-file" viewBox="0 0 25 20">
<path d="M4.904 20c-1.003 0-1.894-.35-2.672-1.048-.823-.74-1.235-1.637-1.235-2.692 0-1.055.412-1.952 1.235-2.691L15.142 1.27A4.694 4.694 0 0 1 17.42.1a5.26 5.26 0 0 1 2.616.142c.883.269 1.699.732 2.447 1.391.24.229.46.48.662.756.203.276.367.565.494.867a5.114 5.114 0 0 1 .393 1.966c-.03 1.425-.569 2.614-1.616 3.568l-9.767 9.315a.71.71 0 0 1-.494.212.714.714 0 0 1-.505-.172.606.606 0 0 1-.224-.453.61.61 0 0 1 .19-.474l9.767-9.315c.793-.726 1.197-1.626 1.212-2.701.015-1.076-.366-1.956-1.145-2.642a5.03 5.03 0 0 0-1.594-1.008 3.843 3.843 0 0 0-1.886-.221 3.205 3.205 0 0 0-1.796.826L3.264 14.456c-.553.497-.83 1.095-.83 1.794 0 .699.277 1.297.83 1.794.255.229.532.4.831.514.3.115.614.158.943.131.659-.026 1.273-.302 1.841-.826l10.26-9.798a3.018 3.018 0 0 0 .427-.474 1.452 1.452 0 0 0 .27-.665.608.608 0 0 0-.068-.353 1.153 1.153 0 0 0-.27-.343c-.284-.269-.56-.39-.83-.363-.284.027-.606.195-.965.504L7.979 13.75a.779.779 0 0 1-.684.181.692.692 0 0 1-.326-.16.551.551 0 0 1-.224-.444c0-.175.067-.33.202-.464l7.723-7.4c.614-.537 1.235-.833 1.864-.886.718-.054 1.377.188 1.975.725.569.498.82 1.082.752 1.754-.067.673-.43 1.304-1.089 1.896L7.912 18.77c-.838.753-1.774 1.156-2.806 1.21a.58.58 0 0 0-.101.01.58.58 0 0 1-.101.01Z" />
</symbol>

<!--* Иконка стрилки влево < галереи  -->
<symbol id="icon-gallery-arrow-right" viewBox="0 0 42 42">
<path fill-rule="evenodd" clip-rule="evenodd" d="M11 38.32 28.609 21 11 3.68 13.72 1 34 21.01 13.72 41 11 38.32Z" />
</symbol>

<!--* Иконка стрилки вправо > галереи  -->
<symbol id="icon-gallery-arrow-left" viewBox="0 0 42 42">
<path fill-rule="evenodd" clip-rule="evenodd" d="M31 3.68 13.391 21 31 38.32 28.28 41 8 20.99 28.28 1 31 3.68Z" />
</symbol>

<!--* Иконка стрелки селекта в форме заказа -->
<symbol id="icon-form-arrow" viewBox="0 0 16 10">
<path d="M8.424 9.186a1 1 0 0 1-1.48 0L.34 1.923C-.245 1.28.211.25 1.08.25h13.21c.869 0 1.325 1.03.74 1.673L8.425 9.186Z" />
</symbol>

<!--* Иконка стрелки навигации "Послуги" -->
<symbol id="icon-services-arrow" viewBox="0 0 10 3">
<path d="m5 0 4.33 3H.67L5 0Z" />
</symbol>

<!--* Иконка телефона -->
<symbol id="icon-phone" viewBox="0 0 12 12">
<path d="m10.217 7.902-1.481-.17a1.16 1.16 0 0 0-.957.333L6.706 9.138a8.776 8.776 0 0 1-3.844-3.844L3.94 4.215c.25-.25.373-.6.332-.957l-.169-1.47A1.167 1.167 0 0 0 2.944.756h-1.01c-.659 0-1.207.548-1.166 1.207a9.912 9.912 0 0 0 9.269 9.27c.659.04 1.207-.508 1.207-1.167v-1.01a1.156 1.156 0 0 0-1.027-1.154Z" />
</symbol>

<!--* Иконка треугольника для выпадающего меню контактов в хедере -->
<symbol id="icon-contact-triangle" viewBox="0 0 51 32">
<path d="M22.69 1.196c0.622-0.734 1.544-1.196 2.574-1.196s1.952 0.463 2.57 1.191l0.004 0.005 20.463 24.253c1.848 2.189 0.29 5.539-2.575 5.539h-40.926c-2.865 0-4.423-3.352-2.573-5.541l20.463-24.251z"></path>
</symbol>

<!--* Иконка видео фрейма -->
<symbol id="icon-play-button" viewBox="0 0 26 32">
<path fill="#487996" style="fill: var(--color1, #487996)" d="M25.931 15.044c0.332 0.194 0.552 0.549 0.552 0.956s-0.22 0.761-0.546 0.953l-0.005 0.003-24 13.856c-0.158 0.093-0.349 0.148-0.552 0.148-0.609 0-1.103-0.494-1.103-1.103v0-27.712c0-0.609 0.494-1.103 1.103-1.103 0.203 0 0.393 0.055 0.557 0.151l-0.005-0.003 24 13.856z"></path>
</symbol>

<symbol  id="icon-test-load" viewBox="0 0 44 44">
<path d="M22 7.333v4.19" stroke="#487996" style="stroke: var(--collor1, #487996)" stroke-linecap="round" stroke-linejoin="round"/>
<path d="M32.476 11.524l-3.143 3.143" stroke="#487996" style="stroke: var(--collor2, #487996)" stroke-linecap="round" stroke-linejoin="round"/>
<path d="M11.524 11.524l3.143 3.143" stroke="#487996" style="stroke: var(--collor3, #487996)" stroke-linecap="round" stroke-linejoin="round"/>
<path d="M22 36.667v-4.19" stroke="#487996" style="stroke: var(--collor1, #487996)" stroke-linecap="round" stroke-linejoin="round"/>
<path d="M32.476 32.476l-3.143-3.143" stroke="#487996" style="stroke: var(--collor4, #487996)" stroke-linecap="round" stroke-linejoin="round"/>
<path d="M11.524 32.476l3.143-3.143" stroke="#487996" style="stroke: var(--collor5, #487996)" stroke-linecap="round" stroke-linejoin="round"/>
<path d="M7.333 22h4.19"  stroke="#487996" style="stroke: var(--collor6, #487996)" stroke-linecap="round" stroke-linejoin="round"/>
<path d="M32.476 22h4.19" stroke="#487996" style="stroke: var(--collor7, #487996)" stroke-linecap="round" stroke-linejoin="round"/>
</symbol>

</defs>
</svg>