<svg aria-hidden="true" style="position: absolute; width: 0; height: 0; overflow: hidden;" version="1.1" xmlns="http://www.w3.org/2000/svg" xmlns:xlink="http://www.w3.org/1999/xlink">
<defs>
<symbol id="icon-arrow" viewBox="0 0 21 32">
<path d="M10.37 0.329c-0 0-0.001 0-0.001 0-0.609 0-1.103 0.494-1.103 1.103 0 0.001 0 0.002 0 0.002v-0 26.079l-6.952-6.959c-0.2-0.2-0.477-0.324-0.782-0.324-0.611 0-1.107 0.496-1.107 1.107 0 0.306 0.124 0.583 0.325 0.783v0l8.839 8.844c0.2 0.201 0.477 0.325 0.782 0.325s0.582-0.124 0.782-0.325l8.839-8.845c0.18-0.196 0.291-0.46 0.291-0.748 0-0.612-0.496-1.108-1.108-1.108-0.289 0-0.552 0.11-0.749 0.291l0.001-0.001-6.952 6.959v-26.079c-0.001-0.61-0.495-1.104-1.104-1.106h-0z"></path>
</symbol>
</defs>
</svg>
