<svg aria-hidden="true" style="position: absolute; width: 0; height: 0; overflow: hidden;" version="1.1" xmlns="http://www.w3.org/2000/svg" xmlns:xlink="http://www.w3.org/1999/xlink">
<defs>
<symbol id="icon-paper-clip" viewBox="0 0 40 32">
<path d="M7.846 32c-1.605 0-3.030-0.56-4.275-1.677-1.317-1.184-1.976-2.619-1.976-4.307s0.659-3.123 1.976-4.306l20.656-19.678c0.984-0.92 2.221-1.58 3.596-1.864l0.049-0.008c0.496-0.104 1.067-0.164 1.651-0.164 0.905 0 1.777 0.143 2.594 0.407l-0.060-0.017c1.413 0.43 2.718 1.171 3.915 2.226 0.384 0.366 0.736 0.768 1.059 1.21 0.325 0.442 0.587 0.904 0.79 1.387 0.398 0.929 0.629 2.010 0.629 3.146v0c-0.048 2.28-0.91 4.182-2.586 5.709l-15.627 14.904c-0.202 0.205-0.481 0.334-0.789 0.339h-0.001c-0.019 0.001-0.040 0.002-0.062 0.002-0.286 0-0.547-0.105-0.747-0.278l0.001 0.001c-0.213-0.173-0.35-0.432-0.358-0.723l-0-0.001c-0.001-0.015-0.001-0.032-0.001-0.049 0-0.279 0.117-0.531 0.305-0.709l0-0 15.627-14.904c1.269-1.162 1.915-2.602 1.939-4.322 0.024-1.722-0.586-3.13-1.832-4.227-0.717-0.673-1.563-1.218-2.496-1.594l-0.054-0.019c-0.653-0.258-1.41-0.408-2.202-0.408-0.288 0-0.57 0.020-0.847 0.058l0.032-0.004c-1.119 0.136-2.107 0.614-2.877 1.325l0.003-0.003-20.656 19.678c-0.885 0.795-1.328 1.752-1.328 2.87s0.443 2.075 1.328 2.87c0.408 0.366 0.851 0.64 1.33 0.822 0.48 0.184 0.982 0.253 1.509 0.21 1.054-0.042 2.037-0.483 2.946-1.322l16.416-15.677c0.252-0.227 0.477-0.475 0.674-0.745l0.009-0.014c0.222-0.298 0.375-0.659 0.431-1.052l0.001-0.012c0.004-0.032 0.006-0.069 0.006-0.107 0-0.168-0.042-0.326-0.117-0.463l0.003 0.005c-0.112-0.215-0.257-0.397-0.43-0.547l-0.002-0.002c-0.454-0.43-0.896-0.624-1.328-0.581-0.454 0.043-0.97 0.312-1.544 0.806l-12.358 11.806c-0.22 0.197-0.511 0.318-0.831 0.318-0.093 0-0.184-0.010-0.271-0.030l0.008 0.002c-0.202-0.040-0.379-0.13-0.523-0.257l0.001 0.001c-0.218-0.162-0.358-0.42-0.358-0.71 0-0 0-0.001 0-0.001v0c0-0.28 0.107-0.528 0.323-0.742l12.357-11.84c0.982-0.859 1.976-1.333 2.982-1.418 1.149-0.086 2.203 0.301 3.16 1.16 0.91 0.797 1.312 1.731 1.203 2.806-0.107 1.077-0.688 2.086-1.742 3.034l-16.416 15.709c-1.341 1.205-2.838 1.85-4.49 1.936-0.058 0.001-0.113 0.006-0.167 0.017l0.006-0.001c-0.048 0.010-0.104 0.015-0.161 0.016h-0.001z"></path>
</symbol>
</defs>
</svg>
